<mxfile host="app.diagrams.net" modified="2024-06-10T13:59:00.431Z" agent="Mozilla/5.0 (Windows NT 10.0; Win64; x64; rv:126.0) Gecko/20100101 Firefox/126.0" version="24.4.8" etag="kn_WNRWF5ceoSBqd7lIf" type="github">
  <diagram name="Seite-1" id="IZ2riCp1PBo_loHYrsb0">
    <mxGraphModel>
      <root>
        <mxCell id="0" />
        <mxCell id="1" parent="0" />
      </root>
    </mxGraphModel>
  </diagram>
</mxfile>
